<svg xmlns="http://www.w3.org/2000/svg" width="16" height="17" viewBox="0 0 16 17" fill="none">
  <path d="M8.75298 4.36L13.549 9.842C14.115 10.488 13.655 11.5 12.796 11.5L3.20398 11.5C3.01174 11.5002 2.82352 11.4449 2.66187 11.3409C2.50022 11.2368 2.37199 11.0884 2.29253 10.9133C2.21308 10.7383 2.18577 10.544 2.21387 10.3538C2.24197 10.1636 2.32429 9.98559 2.45098 9.841L7.24698 4.361C7.34084 4.25359 7.4566 4.1675 7.58647 4.10852C7.71635 4.04954 7.85734 4.01902 7.99998 4.01902C8.14262 4.01902 8.28362 4.04954 8.41349 4.10852C8.54337 4.1675 8.65912 4.25359 8.75298 4.361V4.36Z" fill="white"/>
</svg>