<svg xmlns="http://www.w3.org/2000/svg" width="16" height="17" viewBox="0 0 16 17" fill="none">
  <path d="M7.24702 12.64L2.45102 7.158C1.88502 6.512 2.34502 5.5 3.20402 5.5L12.796 5.5C12.9883 5.49984 13.1765 5.55509 13.3381 5.65914C13.4998 5.76319 13.628 5.91164 13.7075 6.08669C13.7869 6.26175 13.8142 6.456 13.7861 6.64618C13.758 6.83636 13.6757 7.01441 13.549 7.159L8.75302 12.639C8.65916 12.7464 8.5434 12.8325 8.41353 12.8915C8.28365 12.9505 8.14266 12.981 8.00002 12.981C7.85737 12.981 7.71638 12.9505 7.58651 12.8915C7.45663 12.8325 7.34088 12.7464 7.24702 12.639L7.24702 12.64Z" fill="white"/>
</svg>