<svg width="45" height="45" viewBox="0 0 45 45" fill="none" xmlns="http://www.w3.org/2000/svg">
<circle cx="22.5" cy="22.5" r="22.5" fill="#4D5156"/>
<path d="M28.4978 15.7949L28.6468 15.6459C28.759 15.5338 28.8921 15.4449 29.0386 15.3843C29.1851 15.3236 29.3421 15.2924 29.5007 15.2925C29.6592 15.2925 29.8162 15.3238 29.9627 15.3845C30.1092 15.4452 30.2422 15.5342 30.3543 15.6464C30.4664 15.7585 30.5553 15.8916 30.6159 16.0381C30.6766 16.1847 30.7077 16.3417 30.7077 16.5002C30.7077 16.6588 30.6764 16.8158 30.6157 16.9622C30.5549 17.1087 30.466 17.2418 30.3538 17.3539L30.2048 17.5019C30.4597 17.7877 30.5956 18.1603 30.5846 18.5431C30.5736 18.9259 30.4167 19.2901 30.1458 19.5609L19.8538 29.8539C19.7895 29.9179 19.7089 29.9632 19.6208 29.9849L15.6208 30.9849C15.5371 31.0057 15.4494 31.0045 15.3663 30.9815C15.2832 30.9584 15.2074 30.9142 15.1464 30.8532C15.0854 30.7922 15.0413 30.7165 15.0182 30.6334C14.9951 30.5502 14.994 30.4626 15.0148 30.3789L16.0148 26.3789C16.0367 26.2911 16.082 26.2109 16.1458 26.1469L25.7878 16.5049C25.6914 16.437 25.5741 16.4054 25.4566 16.4156C25.3391 16.4259 25.229 16.4773 25.1458 16.5609L21.8538 19.8539C21.8073 19.9004 21.7521 19.9372 21.6914 19.9624C21.6307 19.9875 21.5656 20.0005 21.4998 20.0005C21.4341 20.0005 21.369 19.9875 21.3082 19.9624C21.2475 19.9372 21.1923 19.9004 21.1458 19.8539C21.0993 19.8074 21.0625 19.7522 21.0373 19.6914C21.0121 19.6307 20.9992 19.5656 20.9992 19.4999C20.9992 19.4341 21.0121 19.369 21.0373 19.3083C21.0625 19.2475 21.0993 19.1924 21.1458 19.1459L24.4398 15.8539C24.7108 15.5829 25.0752 15.4259 25.4583 15.4151C25.8414 15.4043 26.214 15.5406 26.4998 15.7959C26.7746 15.5503 27.1301 15.4145 27.4986 15.4143C27.8671 15.4141 28.2228 15.5496 28.4978 15.7949ZM27.8538 16.5609C27.7601 16.4671 27.6329 16.4145 27.5003 16.4145C27.3677 16.4145 27.2406 16.4671 27.1468 16.5609L16.9498 26.7559L16.1858 29.8129L19.2428 29.0489L29.4398 18.8539C29.4864 18.8074 29.5233 18.7522 29.5485 18.6915C29.5737 18.6308 29.5867 18.5656 29.5867 18.4999C29.5867 18.4341 29.5737 18.369 29.5485 18.3082C29.5233 18.2475 29.4864 18.1923 29.4398 18.1459L27.8538 16.5609Z" fill="white"/>
</svg>
