<svg width="24" height="20" viewBox="0 0 24 20" fill="none" xmlns="http://www.w3.org/2000/svg">
<path fill-rule="evenodd" clip-rule="evenodd" d="M0 18.5C0 18.2182 0.111942 17.948 0.311199 17.7487C0.510457 17.5494 0.780707 17.4375 1.0625 17.4375H22.3125C22.5943 17.4375 22.8645 17.5494 23.0638 17.7487C23.2631 17.948 23.375 18.2182 23.375 18.5C23.375 18.7818 23.2631 19.052 23.0638 19.2513C22.8645 19.4506 22.5943 19.5625 22.3125 19.5625H1.0625C0.780707 19.5625 0.510457 19.4506 0.311199 19.2513C0.111942 19.052 0 18.7818 0 18.5ZM0 10C0 9.71821 0.111942 9.44796 0.311199 9.2487C0.510457 9.04944 0.780707 8.9375 1.0625 8.9375H22.3125C22.5943 8.9375 22.8645 9.04944 23.0638 9.2487C23.2631 9.44796 23.375 9.71821 23.375 10C23.375 10.2818 23.2631 10.552 23.0638 10.7513C22.8645 10.9506 22.5943 11.0625 22.3125 11.0625H1.0625C0.780707 11.0625 0.510457 10.9506 0.311199 10.7513C0.111942 10.552 0 10.2818 0 10ZM0 1.5C0 1.21821 0.111942 0.947957 0.311199 0.748699C0.510457 0.549442 0.780707 0.4375 1.0625 0.4375H22.3125C22.5943 0.4375 22.8645 0.549442 23.0638 0.748699C23.2631 0.947957 23.375 1.21821 23.375 1.5C23.375 1.78179 23.2631 2.05204 23.0638 2.2513C22.8645 2.45056 22.5943 2.5625 22.3125 2.5625H1.0625C0.780707 2.5625 0.510457 2.45056 0.311199 2.2513C0.111942 2.05204 0 1.78179 0 1.5Z" fill="#F3F4F6"/>
</svg>
