<svg width="16" height="16" viewBox="0 0 16 16" fill="none" xmlns="http://www.w3.org/2000/svg">
<path d="M4.00033 1.33301H10.0003C10.3539 1.33301 10.6931 1.47348 10.9431 1.72353C11.1932 1.97358 11.3337 2.31272 11.3337 2.66634V3.33301C11.3337 3.50982 11.2634 3.67939 11.1384 3.80441C11.0134 3.92944 10.8438 3.99967 10.667 3.99967C10.4902 3.99967 10.3206 3.92944 10.1956 3.80441C10.0706 3.67939 10.0003 3.50982 10.0003 3.33301V2.66634H4.00033V13.333H10.0003V12.6663C10.0003 12.4895 10.0706 12.32 10.1956 12.1949C10.3206 12.0699 10.4902 11.9997 10.667 11.9997C10.8438 11.9997 11.0134 12.0699 11.1384 12.1949C11.2634 12.32 11.3337 12.4895 11.3337 12.6663V13.333C11.3337 13.6866 11.1932 14.0258 10.9431 14.2758C10.6931 14.5259 10.3539 14.6663 10.0003 14.6663H4.00033C3.6467 14.6663 3.30756 14.5259 3.05752 14.2758C2.80747 14.0258 2.66699 13.6866 2.66699 13.333V2.66634C2.66699 2.31272 2.80747 1.97358 3.05752 1.72353C3.30756 1.47348 3.6467 1.33301 4.00033 1.33301Z" fill="#FF2140"/>
<path d="M4.00033 1.33301H10.0003C10.3539 1.33301 10.6931 1.47348 10.9431 1.72353C11.1932 1.97358 11.3337 2.31272 11.3337 2.66634V3.33301C11.3337 3.50982 11.2634 3.67939 11.1384 3.80441C11.0134 3.92944 10.8438 3.99967 10.667 3.99967C10.4902 3.99967 10.3206 3.92944 10.1956 3.80441C10.0706 3.67939 10.0003 3.50982 10.0003 3.33301V2.66634H4.00033V13.333H10.0003V12.6663C10.0003 12.4895 10.0706 12.32 10.1956 12.1949C10.3206 12.0699 10.4902 11.9997 10.667 11.9997C10.8438 11.9997 11.0134 12.0699 11.1384 12.1949C11.2634 12.32 11.3337 12.4895 11.3337 12.6663V13.333C11.3337 13.6866 11.1932 14.0258 10.9431 14.2758C10.6931 14.5259 10.3539 14.6663 10.0003 14.6663H4.00033C3.6467 14.6663 3.30756 14.5259 3.05752 14.2758C2.80747 14.0258 2.66699 13.6866 2.66699 13.333V2.66634C2.66699 2.31272 2.80747 1.97358 3.05752 1.72353C3.30756 1.47348 3.6467 1.33301 4.00033 1.33301Z" fill="#FF2140"/>
<path d="M11.1967 10.8634C11.4567 11.1234 11.8767 11.1234 12.1367 10.8634L14.5287 8.47142C14.6536 8.3464 14.7239 8.17686 14.7239 8.00008C14.7239 7.82331 14.6536 7.65377 14.5287 7.52875L12.1367 5.13675C12.0099 5.02221 11.8441 4.96075 11.6733 4.96506C11.5025 4.96937 11.3399 5.03912 11.2192 5.15991C11.0984 5.2807 11.0286 5.44327 11.0243 5.61404C11.02 5.7848 11.0815 5.95069 11.196 6.07742L12.4467 7.33342H6.66667C6.48986 7.33342 6.32029 7.40366 6.19526 7.52868C6.07024 7.6537 6 7.82327 6 8.00008C6 8.17689 6.07024 8.34646 6.19526 8.47149C6.32029 8.59651 6.48986 8.66675 6.66667 8.66675H12.4467L11.196 9.92275C11.0717 10.0478 11.002 10.2169 11.0021 10.3932C11.0023 10.5695 11.0722 10.7386 11.1967 10.8634Z" fill="#FF2140"/>
</svg>
