<svg width="50" height="50" viewBox="0 0 50 50" fill="none" xmlns="http://www.w3.org/2000/svg">
<circle cx="25" cy="25" r="25" fill="#F3F4F6"/>
<path opacity="0.2" d="M25.0003 11.6667C26.7684 11.6667 28.4641 12.3691 29.7144 13.6194C30.9646 14.8696 31.667 16.5653 31.667 18.3334C31.667 20.1015 30.9646 21.7972 29.7144 23.0475C28.4641 24.2977 26.7684 25.0001 25.0003 25.0001C23.2322 25.0001 21.5365 24.2977 20.2863 23.0475C19.036 21.7972 18.3337 20.1015 18.3337 18.3334C18.3337 16.5653 19.036 14.8696 20.2863 13.6194C21.5365 12.3691 23.2322 11.6667 25.0003 11.6667ZM25.0003 28.3334C32.367 28.3334 38.3337 31.3167 38.3337 35.0001V38.3334H11.667V35.0001C11.667 31.3167 17.6337 28.3334 25.0003 28.3334Z" fill="#3E3E40"/>
</svg>
