<svg xmlns="http://www.w3.org/2000/svg" width="16" height="16" viewBox="0 0 16 16" fill="none">
<path d="M10.9697 4.97047C11.1105 4.83636 11.298 4.76222 11.4925 4.76369C11.687 4.76516 11.8733 4.84214 12.0121 4.97836C12.1509 5.11459 12.2314 5.29942 12.2366 5.49385C12.2417 5.68828 12.1711 5.8771 12.0397 6.02047L8.04967 11.0105C7.98106 11.0844 7.89825 11.1437 7.8062 11.1848C7.71415 11.226 7.61474 11.2482 7.51392 11.2501C7.4131 11.2519 7.31294 11.2334 7.21943 11.1957C7.12591 11.158 7.04097 11.1018 6.96967 11.0305L4.32367 8.38447C4.24998 8.31581 4.19088 8.23301 4.14989 8.14101C4.1089 8.04901 4.08685 7.9497 4.08508 7.849C4.0833 7.74829 4.10183 7.64827 4.13955 7.55488C4.17727 7.46149 4.23341 7.37666 4.30463 7.30544C4.37585 7.23422 4.46068 7.17807 4.55407 7.14035C4.64746 7.10263 4.74749 7.08411 4.84819 7.08588C4.94889 7.08766 5.04821 7.1097 5.14021 7.15069C5.23221 7.19169 5.31501 7.25079 5.38367 7.32447L7.47767 9.41747L10.9507 4.99248L10.9697 4.97047Z" fill="white"/>
</svg>