<svg width="18" height="18" viewBox="0 0 18 18" fill="none" xmlns="http://www.w3.org/2000/svg">
<circle cx="9" cy="9" r="9" fill="#FF2140"/>
<path d="M11.9697 5.97047C12.1105 5.83636 12.298 5.76222 12.4925 5.76369C12.687 5.76516 12.8733 5.84214 13.0121 5.97836C13.1509 6.11459 13.2314 6.29942 13.2366 6.49385C13.2417 6.68828 13.1711 6.8771 13.0397 7.02047L9.04967 12.0105C8.98106 12.0844 8.89825 12.1437 8.8062 12.1848C8.71415 12.226 8.61474 12.2482 8.51392 12.2501C8.4131 12.2519 8.31294 12.2334 8.21943 12.1957C8.12591 12.158 8.04097 12.1018 7.96967 12.0305L5.32367 9.38447C5.24998 9.31581 5.19088 9.23301 5.14989 9.14101C5.1089 9.04901 5.08685 8.9497 5.08508 8.849C5.0833 8.74829 5.10183 8.64827 5.13955 8.55488C5.17727 8.46149 5.23341 8.37666 5.30463 8.30544C5.37585 8.23422 5.46068 8.17807 5.55407 8.14035C5.64746 8.10263 5.74749 8.08411 5.84819 8.08588C5.94889 8.08766 6.04821 8.1097 6.14021 8.15069C6.23221 8.19169 6.31501 8.25079 6.38367 8.32447L8.47767 10.4175L11.9507 5.99248L11.9697 5.97047Z" fill="white"/>
<path d="M11.9697 5.97047C12.1105 5.83636 12.298 5.76222 12.4925 5.76369C12.687 5.76516 12.8733 5.84214 13.0121 5.97836C13.1509 6.11459 13.2314 6.29942 13.2366 6.49385C13.2417 6.68828 13.1711 6.8771 13.0397 7.02047L9.04967 12.0105C8.98106 12.0844 8.89825 12.1437 8.8062 12.1848C8.71415 12.226 8.61474 12.2482 8.51392 12.2501C8.4131 12.2519 8.31294 12.2334 8.21943 12.1957C8.12591 12.158 8.04097 12.1018 7.96967 12.0305L5.32367 9.38447C5.24998 9.31581 5.19088 9.23301 5.14989 9.14101C5.1089 9.04901 5.08685 8.9497 5.08508 8.849C5.0833 8.74829 5.10183 8.64827 5.13955 8.55488C5.17727 8.46149 5.23341 8.37666 5.30463 8.30544C5.37585 8.23422 5.46068 8.17807 5.55407 8.14035C5.64746 8.10263 5.74749 8.08411 5.84819 8.08588C5.94889 8.08766 6.04821 8.1097 6.14021 8.15069C6.23221 8.19169 6.31501 8.25079 6.38367 8.32447L8.47767 10.4175L11.9507 5.99248L11.9697 5.97047Z" fill="white"/>
</svg>
