<svg xmlns="http://www.w3.org/2000/svg" width="28" height="29" viewBox="0 0 28 29" fill="none">
  <path d="M13.7305 13.7898C15.1229 13.7898 16.4582 13.2367 17.4428 12.2521C18.4273 11.2675 18.9805 9.93218 18.9805 8.53979C18.9805 7.14741 18.4273 5.81205 17.4428 4.82748C16.4582 3.84292 15.1229 3.28979 13.7305 3.28979C12.3381 3.28979 11.0027 3.84292 10.0182 4.82748C9.03359 5.81205 8.48047 7.14741 8.48047 8.53979C8.48047 9.93218 9.03359 11.2675 10.0182 12.2521C11.0027 13.2367 12.3381 13.7898 13.7305 13.7898ZM17.2305 8.53979C17.2305 9.46805 16.8617 10.3583 16.2053 11.0147C15.549 11.671 14.6587 12.0398 13.7305 12.0398C12.8022 12.0398 11.912 11.671 11.2556 11.0147C10.5992 10.3583 10.2305 9.46805 10.2305 8.53979C10.2305 7.61154 10.5992 6.7213 11.2556 6.06492C11.912 5.40854 12.8022 5.03979 13.7305 5.03979C14.6587 5.03979 15.549 5.40854 16.2053 6.06492C16.8617 6.7213 17.2305 7.61154 17.2305 8.53979ZM24.2305 22.5398C24.2305 24.2898 22.4805 24.2898 22.4805 24.2898H4.98047C4.98047 24.2898 3.23047 24.2898 3.23047 22.5398C3.23047 20.7898 4.98047 15.5398 13.7305 15.5398C22.4805 15.5398 24.2305 20.7898 24.2305 22.5398ZM22.4805 22.5328C22.4787 22.1023 22.211 20.8073 21.0245 19.6208C19.8835 18.4798 17.7362 17.2898 13.7305 17.2898C9.72472 17.2898 7.57747 18.4798 6.43647 19.6208C5.24997 20.8073 4.98397 22.1023 4.98047 22.5328H22.4805Z" fill="#F3F4F6"/>
</svg>