<svg width="50" height="50" viewBox="0 0 50 50" fill="none" xmlns="http://www.w3.org/2000/svg">
<circle cx="25" cy="25" r="25" fill="#2D2D2F"/>
<g clip-path="url(#clip0_780_256)">
<path d="M30.4978 17.7951L30.6468 17.6461C30.759 17.534 30.8921 17.4451 31.0386 17.3845C31.1851 17.3239 31.3421 17.2927 31.5007 17.2927C31.6592 17.2928 31.8162 17.324 31.9627 17.3848C32.1092 17.4455 32.2422 17.5345 32.3543 17.6466C32.4664 17.7588 32.5553 17.8919 32.6159 18.0384C32.6766 18.1849 32.7077 18.3419 32.7077 18.5005C32.7077 18.659 32.6764 18.816 32.6157 18.9625C32.5549 19.109 32.466 19.242 32.3538 19.3541L32.2048 19.5021C32.4597 19.788 32.5956 20.1605 32.5846 20.5433C32.5736 20.9262 32.4167 21.2903 32.1458 21.5611L21.8538 31.8541C21.7895 31.9181 21.7089 31.9634 21.6208 31.9851L17.6208 32.9851C17.5371 33.006 17.4494 33.0048 17.3663 32.9817C17.2832 32.9587 17.2074 32.9145 17.1464 32.8535C17.0854 32.7925 17.0413 32.7167 17.0182 32.6336C16.9951 32.5505 16.994 32.4628 17.0148 32.3791L18.0148 28.3791C18.0367 28.2914 18.082 28.2112 18.1458 28.1471L27.7878 18.5051C27.6914 18.4372 27.5741 18.4056 27.4566 18.4159C27.3391 18.4261 27.229 18.4776 27.1458 18.5611L23.8538 21.8541C23.8073 21.9006 23.7521 21.9375 23.6914 21.9626C23.6307 21.9878 23.5656 22.0007 23.4998 22.0007C23.4341 22.0007 23.369 21.9878 23.3082 21.9626C23.2475 21.9375 23.1923 21.9006 23.1458 21.8541C23.0993 21.8076 23.0625 21.7524 23.0373 21.6917C23.0121 21.631 22.9992 21.5659 22.9992 21.5001C22.9992 21.4344 23.0121 21.3693 23.0373 21.3085C23.0625 21.2478 23.0993 21.1926 23.1458 21.1461L26.4398 17.8541C26.7108 17.5831 27.0752 17.4261 27.4583 17.4153C27.8414 17.4046 28.214 17.5408 28.4998 17.7961C28.7746 17.5505 29.1301 17.4147 29.4986 17.4145C29.8671 17.4144 30.2228 17.5498 30.4978 17.7951ZM29.8538 18.5611C29.7601 18.4674 29.6329 18.4147 29.5003 18.4147C29.3677 18.4147 29.2406 18.4674 29.1468 18.5611L18.9498 28.7561L18.1858 31.8131L21.2428 31.0491L31.4398 20.8541C31.4864 20.8077 31.5233 20.7525 31.5485 20.6917C31.5737 20.631 31.5867 20.5659 31.5867 20.5001C31.5867 20.4343 31.5737 20.3692 31.5485 20.3085C31.5233 20.2477 31.4864 20.1926 31.4398 20.1461L29.8538 18.5611Z" fill="white"/>
</g>
<defs>
<clipPath id="clip0_780_256">
<rect width="16" height="16" fill="white" transform="translate(17 17)"/>
</clipPath>
</defs>
</svg>
