<svg xmlns="http://www.w3.org/2000/svg" width="28" height="28" viewBox="0 0 28 28" fill="none">
  <g clip-path="url(#clip0_761_1012)">
    <path d="M13.9998 8.31934C13.2539 8.31934 12.5152 8.46627 11.826 8.75174C11.1368 9.03721 10.5106 9.45563 9.98312 9.98312C9.45563 10.5106 9.03721 11.1368 8.75174 11.826C8.46627 12.5152 8.31934 13.2539 8.31934 13.9998C8.31934 14.7458 8.46627 15.4845 8.75174 16.1737C9.03721 16.8629 9.45563 17.4891 9.98312 18.0166C10.5106 18.544 11.1368 18.9625 11.826 19.2479C12.5152 19.5334 13.2539 19.6803 13.9998 19.6803C15.5064 19.6803 16.9513 19.0819 18.0166 18.0166C19.0819 16.9513 19.6803 15.5064 19.6803 13.9998C19.6803 12.4933 19.0819 11.0484 18.0166 9.98312C16.9513 8.91782 15.5064 8.31934 13.9998 8.31934ZM10.0693 13.9998C10.0693 12.9574 10.4834 11.9577 11.2206 11.2206C11.9577 10.4834 12.9574 10.0693 13.9998 10.0693C15.0423 10.0693 16.042 10.4834 16.7791 11.2206C17.5162 11.9577 17.9303 12.9574 17.9303 13.9998C17.9303 15.0423 17.5162 16.042 16.7791 16.7791C16.042 17.5162 15.0423 17.9303 13.9998 17.9303C12.9574 17.9303 11.9577 17.5162 11.2206 16.7791C10.4834 16.042 10.0693 15.0423 10.0693 13.9998Z" fill="#92969B"/>
    <path d="M17.1431 2.35035C16.2209 -0.782148 11.7794 -0.782148 10.8571 2.35035L10.6926 2.9086C10.6282 3.12727 10.5157 3.32875 10.3633 3.49828C10.2109 3.66781 10.0225 3.80109 9.8119 3.88834C9.60131 3.9756 9.37386 4.01463 9.14622 4.00256C8.91859 3.99049 8.69654 3.92764 8.49635 3.8186L7.98535 3.5386C5.11535 1.9776 1.9776 5.1171 3.54035 7.98535L3.8186 8.49635C3.92764 8.69654 3.99049 8.91859 4.00256 9.14622C4.01463 9.37386 3.9756 9.60131 3.88834 9.8119C3.80109 10.0225 3.66781 10.2109 3.49828 10.3633C3.32875 10.5157 3.12727 10.6282 2.9086 10.6926L2.35035 10.8571C-0.782148 11.7794 -0.782148 16.2209 2.35035 17.1431L2.9086 17.3076C3.12727 17.372 3.32875 17.4845 3.49828 17.6369C3.66781 17.7893 3.80109 17.9777 3.88834 18.1883C3.9756 18.3989 4.01463 18.6263 4.00256 18.854C3.99049 19.0816 3.92764 19.3037 3.8186 19.5039L3.5386 20.0149C1.9776 22.8849 5.11535 26.0244 7.98535 24.4599L8.49635 24.1816C8.69654 24.0726 8.91859 24.0097 9.14622 23.9976C9.37386 23.9856 9.60131 24.0246 9.8119 24.1119C10.0225 24.1991 10.2109 24.3324 10.3633 24.5019C10.5157 24.6715 10.6282 24.8729 10.6926 25.0916L10.8571 25.6499C11.7794 28.7824 16.2209 28.7824 17.1431 25.6499L17.3076 25.0916C17.372 24.8729 17.4845 24.6715 17.6369 24.5019C17.7893 24.3324 17.9777 24.1991 18.1883 24.1119C18.3989 24.0246 18.6263 23.9856 18.854 23.9976C19.0816 24.0097 19.3037 24.0726 19.5039 24.1816L20.0149 24.4616C22.8849 26.0244 26.0244 22.8831 24.4599 20.0149L24.1816 19.5039C24.0726 19.3037 24.0097 19.0816 23.9976 18.854C23.9856 18.6263 24.0246 18.3989 24.1119 18.1883C24.1991 17.9777 24.3324 17.7893 24.5019 17.6369C24.6715 17.4845 24.8729 17.372 25.0916 17.3076L25.6499 17.1431C28.7824 16.2209 28.7824 11.7794 25.6499 10.8571L25.0916 10.6926C24.8729 10.6282 24.6715 10.5157 24.5019 10.3633C24.3324 10.2109 24.1991 10.0225 24.1119 9.8119C24.0246 9.60131 23.9856 9.37386 23.9976 9.14622C24.0097 8.91859 24.0726 8.69654 24.1816 8.49635L24.4616 7.98535C26.0244 5.11535 22.8831 1.9776 20.0149 3.54035L19.5039 3.8186C19.3037 3.92764 19.0816 3.99049 18.854 4.00256C18.6263 4.01463 18.3989 3.9756 18.1883 3.88834C17.9777 3.80109 17.7893 3.66781 17.6369 3.49828C17.4845 3.32875 17.372 3.12727 17.3076 2.9086L17.1431 2.35035ZM12.5354 2.8456C12.9659 1.38435 15.0344 1.38435 15.4649 2.8456L15.6294 3.40385C15.7676 3.873 16.0092 4.30526 16.3362 4.66893C16.6633 5.0326 17.0676 5.31846 17.5195 5.50557C17.9714 5.69267 18.4594 5.77627 18.9478 5.75023C19.4363 5.7242 19.9127 5.58919 20.3421 5.3551L20.8514 5.0751C22.1884 4.34885 23.6514 5.8101 22.9234 7.14885L22.6451 7.65985C22.4114 8.08935 22.2767 8.5657 22.2509 9.054C22.2252 9.5423 22.309 10.0302 22.4963 10.4819C22.6835 10.9336 22.9695 11.3377 23.3332 11.6645C23.6968 11.9914 24.129 12.2327 24.5981 12.3709L25.1546 12.5354C26.6159 12.9659 26.6159 15.0344 25.1546 15.4649L24.5964 15.6294C24.1272 15.7676 23.6949 16.0092 23.3313 16.3362C22.9676 16.6633 22.6817 17.0676 22.4946 17.5195C22.3075 17.9714 22.2239 18.4594 22.25 18.9478C22.276 19.4363 22.411 19.9127 22.6451 20.3421L22.9251 20.8514C23.6514 22.1884 22.1901 23.6514 20.8514 22.9234L20.3421 22.6451C19.9125 22.411 19.436 22.2761 18.9475 22.2502C18.459 22.2242 17.9709 22.308 17.519 22.4953C17.067 22.6826 16.6628 22.9686 16.3358 23.3325C16.0088 23.6964 15.7674 24.1288 15.6294 24.5981L15.4649 25.1546C15.0344 26.6159 12.9659 26.6159 12.5354 25.1546L12.3709 24.5964C12.2325 24.1274 11.991 23.6954 11.6641 23.3319C11.3371 22.9685 10.933 22.6827 10.4814 22.4956C10.0297 22.3085 9.54187 22.2249 9.05367 22.2507C8.56547 22.2766 8.08923 22.4113 7.65985 22.6451L7.14885 22.9251C5.81185 23.6514 4.34885 22.1901 5.07685 20.8514L5.3551 20.3421C5.58952 19.9126 5.72479 19.436 5.751 18.9474C5.77721 18.4588 5.69368 17.9705 5.50655 17.5184C5.31943 17.0662 5.03344 16.6618 4.66959 16.3346C4.30574 16.0074 3.87325 15.7658 3.40385 15.6276L2.8456 15.4631C1.38435 15.0326 1.38435 12.9641 2.8456 12.5336L3.40385 12.3691C3.87251 12.2307 4.3043 11.9892 4.6676 11.6624C5.03091 11.3356 5.31654 10.9317 5.50359 10.4802C5.69065 10.0288 5.7744 9.54123 5.7487 9.05324C5.72301 8.56524 5.58853 8.08916 5.3551 7.65985L5.0751 7.14885C4.34885 5.81185 5.8101 4.34885 7.14885 5.07685L7.65985 5.3551C8.08923 5.58886 8.56547 5.72361 9.05367 5.74947C9.54187 5.77533 10.0297 5.69166 10.4814 5.50458C10.933 5.3175 11.3371 5.03175 11.6641 4.66826C11.991 4.30478 12.2325 3.87276 12.3709 3.40385L12.5354 2.8456Z" fill="#92969B"/>
  </g>
  <defs>
    <clipPath id="clip0_761_1012">
      <rect width="28" height="28" fill="white"/>
    </clipPath>
  </defs>
</svg>
