<svg width="28" height="28" viewBox="0 0 28 28" fill="none" xmlns="http://www.w3.org/2000/svg">
<path d="M8.25132 11.4485L5.85032 13.8495C4.86567 14.8341 4.3125 16.1696 4.3125 17.5621C4.3125 18.9546 4.86567 20.2901 5.85032 21.2747C6.83497 22.2594 8.17044 22.8126 9.56294 22.8126C10.9554 22.8126 12.2909 22.2594 13.2756 21.2747L16.4746 18.074C17.0683 17.4801 17.511 16.7525 17.7654 15.9522C18.0197 15.1519 18.0784 14.3022 17.9365 13.4745C17.7945 12.6468 17.4561 11.8653 16.9496 11.1955C16.4431 10.5256 15.7833 9.98707 15.0256 9.625L14.0001 10.6505C13.8959 10.7548 13.8054 10.8718 13.7306 10.9987C14.316 11.167 14.8474 11.4852 15.2721 11.9218C15.6969 12.3584 16.0004 12.8983 16.1526 13.4881C16.3048 14.0779 16.3004 14.6972 16.1399 15.2848C15.9793 15.8724 15.6682 16.408 15.2373 16.8385L12.0401 20.0375C11.3833 20.6942 10.4926 21.0632 9.56382 21.0632C8.63505 21.0632 7.74431 20.6942 7.08757 20.0375C6.43083 19.3808 6.06187 18.49 6.06187 17.5612C6.06187 16.6325 6.43083 15.7417 7.08757 15.085L8.47532 13.699C8.27897 12.9654 8.20332 12.2064 8.25132 11.4485Z" fill="white"/>
<path d="M11.5257 8.17578C10.9319 8.76963 10.4893 9.49726 10.2349 10.2976C9.98055 11.0979 9.92188 11.9476 10.0638 12.7752C10.2058 13.6029 10.5442 14.3845 11.0507 15.0543C11.5572 15.7242 12.217 16.2627 12.9747 16.6248L14.331 15.2668C13.7376 15.1076 13.1966 14.7951 12.7623 14.3606C12.328 13.9262 12.0157 13.385 11.8568 12.7916C11.6979 12.1982 11.698 11.5734 11.8571 10.9801C12.0161 10.3867 12.3285 9.84565 12.763 9.41128L15.9602 6.21228C16.6169 5.55554 17.5077 5.18659 18.4365 5.18659C19.3652 5.18659 20.256 5.55554 20.9127 6.21228C21.5695 6.86903 21.9384 7.75976 21.9384 8.68853C21.9384 9.61731 21.5695 10.508 20.9127 11.1648L19.525 12.5508C19.721 13.2858 19.7962 14.047 19.749 14.803L22.15 12.402C23.1346 11.4174 23.6878 10.0819 23.6878 8.68941C23.6878 7.2969 23.1346 5.96143 22.15 4.97678C21.1653 3.99214 19.8298 3.43896 18.4373 3.43896C17.0448 3.43896 15.7094 3.99214 14.7247 4.97678L11.5257 8.17578Z" fill="white"/>
</svg>
