<svg xmlns="http://www.w3.org/2000/svg" width="20" height="21" viewBox="0 0 20 21" fill="none">
  <path d="M11.875 17.0625C11.875 17.5846 11.6775 18.0854 11.3258 18.4546C10.9742 18.8238 10.4973 19.0312 10 19.0312C9.50272 19.0312 9.02581 18.8238 8.67417 18.4546C8.32254 18.0854 8.125 17.5846 8.125 17.0625C8.125 16.5404 8.32254 16.0396 8.67417 15.6704C9.02581 15.3012 9.50272 15.0938 10 15.0938C10.4973 15.0938 10.9742 15.3012 11.3258 15.6704C11.6775 16.0396 11.875 16.5404 11.875 17.0625ZM11.875 10.5C11.875 11.0221 11.6775 11.5229 11.3258 11.8921C10.9742 12.2613 10.4973 12.4688 10 12.4688C9.50272 12.4688 9.02581 12.2613 8.67417 11.8921C8.32254 11.5229 8.125 11.0221 8.125 10.5C8.125 9.97785 8.32254 9.4771 8.67417 9.10788C9.02581 8.73867 9.50272 8.53125 10 8.53125C10.4973 8.53125 10.9742 8.73867 11.3258 9.10788C11.6775 9.4771 11.875 9.97785 11.875 10.5ZM11.875 3.9375C11.875 4.45965 11.6775 4.9604 11.3258 5.32962C10.9742 5.69883 10.4973 5.90625 10 5.90625C9.50272 5.90625 9.02581 5.69883 8.67417 5.32962C8.32254 4.9604 8.125 4.45965 8.125 3.9375C8.125 3.41536 8.32254 2.9146 8.67417 2.54538C9.02581 2.17617 9.50272 1.96875 10 1.96875C10.4973 1.96875 10.9742 2.17617 11.3258 2.54538C11.6775 2.9146 11.875 3.41536 11.875 3.9375Z" fill="#F3F4F6"/>
</svg>