<svg width="28" height="28" viewBox="0 0 28 28" fill="none" xmlns="http://www.w3.org/2000/svg">
<path d="M12.833 19.833H15.1663V12.833H12.833V19.833ZM13.9997 10.4997C14.3302 10.4997 14.6073 10.3879 14.8309 10.1643C15.0545 9.94065 15.1663 9.66356 15.1663 9.33301C15.1663 9.00245 15.0545 8.72537 14.8309 8.50176C14.6073 8.27815 14.3302 8.16634 13.9997 8.16634C13.6691 8.16634 13.392 8.27815 13.1684 8.50176C12.9448 8.72537 12.833 9.00245 12.833 9.33301C12.833 9.66356 12.9448 9.94065 13.1684 10.1643C13.392 10.3879 13.6691 10.4997 13.9997 10.4997ZM13.9997 25.6663C12.3858 25.6663 10.8691 25.3601 9.44967 24.7476C8.03023 24.1351 6.79551 23.3038 5.74551 22.2538C4.69551 21.2038 3.86426 19.9691 3.25176 18.5497C2.63926 17.1302 2.33301 15.6136 2.33301 13.9997C2.33301 12.3858 2.63926 10.8691 3.25176 9.44967C3.86426 8.03023 4.69551 6.79551 5.74551 5.74551C6.79551 4.69551 8.03023 3.86426 9.44967 3.25176C10.8691 2.63926 12.3858 2.33301 13.9997 2.33301C15.6136 2.33301 17.1302 2.63926 18.5497 3.25176C19.9691 3.86426 21.2038 4.69551 22.2538 5.74551C23.3038 6.79551 24.1351 8.03023 24.7476 9.44967C25.3601 10.8691 25.6663 12.3858 25.6663 13.9997C25.6663 15.6136 25.3601 17.1302 24.7476 18.5497C24.1351 19.9691 23.3038 21.2038 22.2538 22.2538C21.2038 23.3038 19.9691 24.1351 18.5497 24.7476C17.1302 25.3601 15.6136 25.6663 13.9997 25.6663ZM13.9997 23.333C16.6052 23.333 18.8122 22.4288 20.6205 20.6205C22.4288 18.8122 23.333 16.6052 23.333 13.9997C23.333 11.3941 22.4288 9.18717 20.6205 7.37884C18.8122 5.57051 16.6052 4.66634 13.9997 4.66634C11.3941 4.66634 9.18717 5.57051 7.37884 7.37884C5.57051 9.18717 4.66634 11.3941 4.66634 13.9997C4.66634 16.6052 5.57051 18.8122 7.37884 20.6205C9.18717 22.4288 11.3941 23.333 13.9997 23.333Z" fill="#92969B"/>
</svg>
