<svg width="26" height="26" viewBox="0 0 26 26" fill="none" xmlns="http://www.w3.org/2000/svg">
<path d="M1.08301 22.7503L12.9997 2.16699L24.9163 22.7503H1.08301ZM4.82051 20.5837H21.1788L12.9997 6.50033L4.82051 20.5837ZM12.9997 19.5003C13.3066 19.5003 13.5639 19.3965 13.7715 19.1889C13.9792 18.9812 14.083 18.7239 14.083 18.417C14.083 18.11 13.9792 17.8528 13.7715 17.6451C13.5639 17.4375 13.3066 17.3337 12.9997 17.3337C12.6927 17.3337 12.4354 17.4375 12.2278 17.6451C12.0202 17.8528 11.9163 18.11 11.9163 18.417C11.9163 18.7239 12.0202 18.9812 12.2278 19.1889C12.4354 19.3965 12.6927 19.5003 12.9997 19.5003ZM11.9163 16.2503H14.083V10.8337H11.9163V16.2503Z" fill="#FFB630"/>
</svg>
