<svg xmlns="http://www.w3.org/2000/svg" width="16" height="20" viewBox="0 0 16 20" fill="none">
  <path d="M12.14 10.5393L6.658 16.314C6.012 16.9956 5 16.4417 5 15.4074V3.85782C4.99984 3.62635 5.05509 3.39972 5.15914 3.20508C5.26319 3.01044 5.41164 2.85604 5.58669 2.76037C5.76175 2.66469 5.956 2.63181 6.14618 2.66564C6.33636 2.69948 6.51441 2.79861 6.659 2.95115L12.139 8.72593C12.2464 8.83894 12.3325 8.97832 12.3915 9.1347C12.4505 9.29108 12.481 9.46085 12.481 9.6326C12.481 9.80435 12.4505 9.97412 12.3915 10.1305C12.3325 10.2869 12.2464 10.4263 12.139 10.5393H12.14Z" fill="white"/>
</svg>